<?xml version="1.0" encoding="UTF-8"?>
<svg version="1.1" xmlns="http://www.w3.org/2000/svg" width="612" height="408">
<path d="M0 0 C0.78375 0.04125 1.5675 0.0825 2.375 0.125 C2.808125 1.28 3.24125 2.435 3.6875 3.625 C3.96207031 4.35460937 4.23664063 5.08421875 4.51953125 5.8359375 C5.06552515 7.29690747 5.60524754 8.76024707 6.13671875 10.2265625 C12.02061843 26.35280607 22.19009016 37.13348293 37.703125 44.5078125 C48.02475558 49.17661224 62.30886267 51.81371244 73.375 48.125 C73.47296875 47.36316406 73.5709375 46.60132813 73.671875 45.81640625 C75.1236675 35.79152874 77.63574611 27.10967664 85.375 20.125 C89.24327709 17.79002389 92.9447396 17.55250114 97.375 18.125 C101.2362686 19.80381243 102.80711031 21.27465142 104.375 25.125 C104.98207253 30.11549332 104.6978629 34.60832215 102.375 39.125 C101.818125 40.2696875 101.818125 40.2696875 101.25 41.4375 C100.96125 41.994375 100.6725 42.55125 100.375 43.125 C99.715 43.125 99.055 43.125 98.375 43.125 C98.375 44.115 98.375 45.105 98.375 46.125 C96.94921875 47.51171875 96.94921875 47.51171875 95.0625 48.8125 C94.44761719 49.24949219 93.83273438 49.68648437 93.19921875 50.13671875 C91.375 51.125 91.375 51.125 88.375 51.125 C88.375 51.785 88.375 52.445 88.375 53.125 C86.725 53.455 85.075 53.785 83.375 54.125 C82.60928895 67.39732492 87.54851201 78.64433925 95.375 89.125 C97.03351685 90.79977682 98.69799543 92.46873577 100.375 94.125 C100.375 94.785 100.375 95.445 100.375 96.125 C100.94089844 96.38152344 101.50679688 96.63804687 102.08984375 96.90234375 C105.47435146 98.71320001 108.28103331 101.15502027 111.25390625 103.56640625 C113.38353351 105.2983559 113.38353351 105.2983559 116.375 106.125 C116.375 106.785 116.375 107.445 116.375 108.125 C134.374218 113.86943128 150.05199312 114.33696239 168.375 110.125 C169.8909375 109.78275391 169.8909375 109.78275391 171.4375 109.43359375 C177.15696877 108.0118508 182.35873246 105.94873539 187.671875 103.40625 C190.375 102.125 190.375 102.125 194.09375 100.90234375 C197.64435307 99.43539776 197.64435307 99.43539776 198.609375 95.97265625 C198.77953125 94.72355469 198.9496875 93.47445312 199.125 92.1875 C199.33742957 90.82644392 199.55230402 89.46576735 199.76953125 88.10546875 C199.86830566 87.4304834 199.96708008 86.75549805 200.06884766 86.06005859 C201.51948266 76.89121249 204.57178847 67.94729009 207.375 59.125 C208.035 59.125 208.695 59.125 209.375 59.125 C209.436875 58.34125 209.49875 57.5575 209.5625 56.75 C210.6782335 51.77211207 212.97806227 47.60046306 215.375 43.125 C216.035 43.125 216.695 43.125 217.375 43.125 C217.44847656 42.59390625 217.52195312 42.0628125 217.59765625 41.515625 C218.68543676 38.17028996 220.70216388 35.63594053 222.8125 32.875 C223.42448242 32.04355469 223.42448242 32.04355469 224.04882812 31.1953125 C225.10453309 29.79689091 226.23487587 28.45549348 227.375 27.125 C228.035 27.125 228.695 27.125 229.375 27.125 C229.59285156 26.55265625 229.81070313 25.9803125 230.03515625 25.390625 C231.81017849 22.38912966 233.98725863 20.90106951 236.8125 18.875 C238.26462891 17.81539062 238.26462891 17.81539062 239.74609375 16.734375 C242.375 15.125 242.375 15.125 245.375 15.125 C245.375 14.465 245.375 13.805 245.375 13.125 C250.62695809 11.3743473 257.15782371 10.84685826 262.390625 12.92578125 C266.82252927 16.18255939 268.53002536 20.90078179 269.375 26.125 C269.66317401 34.13383615 267.49244296 41.79606806 264.375 49.125 C263.715 49.785 263.055 50.445 262.375 51.125 C261.67240222 52.79785185 260.97007506 54.47081821 260.26953125 56.14453125 C256.74457262 63.9486973 251.21582489 69.96239344 245.375 76.125 C244.29412109 77.28515625 244.29412109 77.28515625 243.19140625 78.46875 C239.71819729 82.09296804 237.19527756 84.46283532 232.375 86.125 C232.375 86.785 232.375 87.445 232.375 88.125 C230.42578125 89.5703125 230.42578125 89.5703125 227.6875 91.25 C226.69492187 91.86359375 225.70234375 92.4771875 224.6796875 93.109375 C223.58914063 93.77453125 222.49859375 94.4396875 221.375 95.125 C220.18953379 95.85845391 219.00464589 96.59284328 217.8203125 97.328125 C208.83897695 102.89301153 208.83897695 102.89301153 206.375 104.125 C203.25129009 123.17963043 205.63325202 142.29216904 217.04296875 158.1875 C218.375 160.125 218.375 160.125 219.30078125 162.25 C220.6741138 164.64708955 221.86498488 165.02770136 224.375 166.125 C226.15513602 167.25632687 227.92527582 168.40346995 229.6875 169.5625 C241.49272999 177.09476695 253.03897141 179.7004317 266.9375 179.625 C268.16823242 179.61927979 269.39896484 179.61355957 270.66699219 179.60766602 C280.9421899 179.40778825 289.82158145 177.82317363 299.375 174.125 C300.01695312 173.8892627 300.65890625 173.65352539 301.3203125 173.41064453 C319.14487575 166.76702569 336.45666371 156.07742515 351.02734375 143.91015625 C353.375 142.125 353.375 142.125 355.375 142.125 C355.375 141.465 355.375 140.805 355.375 140.125 C356.365 140.125 357.355 140.125 358.375 140.125 C358.375 139.465 358.375 138.805 358.375 138.125 C362.84558824 134.125 362.84558824 134.125 365.375 134.125 C365.375 133.465 365.375 132.805 365.375 132.125 C367.11807894 130.58887524 368.92049096 129.11959641 370.75 127.6875 C373.87302904 125.23830281 376.16773801 123.43589299 378.375 120.125 C376.93833984 120.86943359 376.93833984 120.86943359 375.47265625 121.62890625 C343.9934258 137.75592129 343.9934258 137.75592129 331.375 137.125 C330.715 136.795 330.055 136.465 329.375 136.125 C329.375 134.145 329.375 132.165 329.375 130.125 C330.11621094 129.98964844 330.85742188 129.85429687 331.62109375 129.71484375 C344.38355339 127.10611577 356.36679408 122.38667046 367.34765625 115.34765625 C369.90241073 113.80692764 372.49644871 112.8825135 375.375 112.125 C375.375 111.465 375.375 110.805 375.375 110.125 C376.18710937 109.75632812 376.99921875 109.38765625 377.8359375 109.0078125 C383.04011925 106.40724957 387.5974722 102.76267933 392.2734375 99.33203125 C393.00046875 98.80738281 393.7275 98.28273438 394.4765625 97.7421875 C395.12963379 97.26378418 395.78270508 96.78538086 396.45556641 96.29248047 C398.43601092 95.08789058 400.11000662 94.55885611 402.375 94.125 C402.375 93.465 402.375 92.805 402.375 92.125 C404.1875 91.4375 404.1875 91.4375 406.375 91.125 C408.125 92.25 408.125 92.25 409.375 94.125 C409.6875 96.6875 409.6875 96.6875 409.375 99.125 C408.715 99.785 408.055 100.445 407.375 101.125 C406.68077053 102.68771897 406.04110213 104.27509075 405.4375 105.875 C403.93888021 109.7468987 402.2672456 113.42651995 400.375 117.125 C399.68971955 118.78410004 399.01608137 120.44832564 398.375 122.125 C397.715 122.125 397.055 122.125 396.375 122.125 C396.2925 122.640625 396.21 123.15625 396.125 123.6875 C395.06401091 127.13571455 393.2229957 130.05292997 391.375 133.125 C390.96378906 133.82238281 390.55257813 134.51976562 390.12890625 135.23828125 C388.56248755 137.87856206 386.97155562 140.50281978 385.375 143.125 C384.82900146 144.02581299 384.82900146 144.02581299 384.27197266 144.94482422 C371.43090013 166.06909987 371.43090013 166.06909987 364.375 173.125 C361.75 173.25 361.75 173.25 359.375 173.125 C358.52830067 170.25987467 358.08778382 168.73868709 359.37890625 165.97998047 C359.89324219 165.28275879 360.40757812 164.58553711 360.9375 163.8671875 C361.49566406 163.08827148 362.05382812 162.30935547 362.62890625 161.50683594 C363.20511719 160.72083008 363.78132813 159.93482422 364.375 159.125 C365.38166702 157.65297476 366.38184298 156.17648634 367.375 154.6953125 C367.86709961 153.96747559 368.35919922 153.23963867 368.86621094 152.48974609 C373.76791815 145.2133283 378.43232592 137.9757633 382.375 130.125 C381.715 130.125 381.055 130.125 380.375 130.125 C380.045 131.115 379.715 132.105 379.375 133.125 C378.04166667 133.79166667 376.70833333 134.45833333 375.375 135.125 C373.70110905 136.78441093 372.03574185 138.4524295 370.375 140.125 C368.37327174 141.94451289 366.31946119 143.69574651 364.25 145.4375 C363.72535156 145.89189453 363.20070313 146.34628906 362.66015625 146.81445312 C358.72732613 150.125 358.72732613 150.125 355.375 150.125 C355.045 151.115 354.715 152.105 354.375 153.125 C353.385 153.125 352.395 153.125 351.375 153.125 C351.045 154.115 350.715 155.105 350.375 156.125 C348.59765625 157.51171875 348.59765625 157.51171875 346.4375 158.8125 C345.72722656 159.24949219 345.01695312 159.68648437 344.28515625 160.13671875 C342.375 161.125 342.375 161.125 340.375 161.125 C340.375 161.785 340.375 162.445 340.375 163.125 C334.625 166.125 334.625 166.125 332.375 166.125 C332.375 166.785 332.375 167.445 332.375 168.125 C304.27006532 182.36708084 275.48983439 194.6506713 243.375 186.125 C235.25501526 183.37685702 227.79581437 179.37589957 220.375 175.125 C220.375 174.465 220.375 173.805 220.375 173.125 C219.79363281 172.87234375 219.21226562 172.6196875 218.61328125 172.359375 C209.62190838 167.40078193 205.46046066 156.9915538 201.375 148.125 C201.00246094 147.47402344 200.62992188 146.82304687 200.24609375 146.15234375 C198.96310635 143.16637755 198.70567875 140.2181185 198.3125 137 C198.23088623 136.33274902 198.14927246 135.66549805 198.06518555 134.97802734 C197.82933211 133.02770989 197.60199589 131.07636821 197.375 129.125 C197.24867188 128.17109375 197.12234375 127.2171875 196.9921875 126.234375 C196.30798194 120.65546809 196.5670665 115.69076408 197.375 110.125 C190.36545688 112.11157558 183.51923372 114.45497848 176.671875 116.94140625 C158.61215631 123.42493085 135.22468881 125.7925148 117.35205078 117.52783203 C110.101869 113.98273734 103.06195341 109.94865902 97.375 104.125 C97.375 103.465 97.375 102.805 97.375 102.125 C96.735625 101.856875 96.09625 101.58875 95.4375 101.3125 C93.375 100.125 93.375 100.125 92.375 97.125 C91.715 97.125 91.055 97.125 90.375 97.125 C88.82439636 95.0930695 87.43109013 93.08854285 86.0625 90.9375 C85.66023193 90.30690674 85.25796387 89.67631348 84.84350586 89.02661133 C78.96655128 79.53033445 74.375 68.42585411 74.375 57.125 C73.39917969 57.29515625 72.42335938 57.4653125 71.41796875 57.640625 C52.9153177 60.26195009 33.64974564 54.93675874 18.578125 44.1171875 C16.70020164 42.52561416 14.93744041 41.02665445 13.375 39.125 C13.375 38.465 13.375 37.805 13.375 37.125 C11.89 36.63 11.89 36.63 10.375 36.125 C8.80540333 34.10993685 7.4233259 32.14981078 6.0625 30 C5.66877197 29.3819751 5.27504395 28.7639502 4.86938477 28.12719727 C0.41997784 20.90564201 -5.72365169 10.80589575 -4.625 2.125 C-2.625 0.125 -2.625 0.125 0 0 Z M225.9375 41.62109375 C216.41291023 56.88424886 206.72321302 75.70344157 207.375 94.125 C210.74237508 92.64335497 213.55564159 90.61775019 216.49609375 88.44140625 C218.375 87.125 218.375 87.125 220.7578125 85.73828125 C223.65999552 83.94932366 226.19126028 81.92878932 228.8125 79.75 C229.76640625 78.95722656 230.7203125 78.16445312 231.703125 77.34765625 C233.02570313 76.24744141 233.02570313 76.24744141 234.375 75.125 C235.05046875 74.58746094 235.7259375 74.04992187 236.421875 73.49609375 C237.7757368 72.41622779 239.08258258 71.27769661 240.375 70.125 C240.375 69.465 240.375 68.805 240.375 68.125 C241.035 68.125 241.695 68.125 242.375 68.125 C242.375 67.465 242.375 66.805 242.375 66.125 C243.365 65.795 244.355 65.465 245.375 65.125 C246.97169535 62.98431084 248.40710155 60.88565546 249.8125 58.625 C250.21355957 57.98643066 250.61461914 57.34786133 251.02783203 56.68994141 C256.67816468 47.55288938 262.31231145 36.56734119 261.1875 25.5 C260.67377715 22.07580057 260.67377715 22.07580057 258.375 20.125 C244.81076247 17.14258837 232.97052677 31.73089986 225.9375 41.62109375 Z M90.375 26.625 C85.97198204 29.92726347 83.62645373 35.89164804 82.375 41.125 C82.66075956 42.80047914 82.98772709 44.47003517 83.375 46.125 C91.20125776 41.45448748 91.20125776 41.45448748 96.375 34.125 C96.71024876 30.37370163 96.71024876 30.37370163 96.375 27.125 C94.10831203 26.31546858 92.73114046 26.03596488 90.375 26.625 Z M379.375 118.125 C379.045 118.785 378.715 119.445 378.375 120.125 C379.365 119.795 380.355 119.465 381.375 119.125 C380.715 118.795 380.055 118.465 379.375 118.125 Z " fill="#181818" transform="translate(103.625,109.875)"/>
<path d="M0 0 C2.97 0 5.94 0 9 0 C9.66 1.98 10.32 3.96 11 6 C9.10114904 7.89885096 6.42752097 7.12367506 3.91015625 7.1328125 C2 7 2 7 0 6 C0 4.02 0 2.04 0 0 Z " fill="#252525" transform="translate(433,240)"/>
<path d="M0 0 C0.33 0.99 0.66 1.98 1 3 C1.99 3.33 2.98 3.66 4 4 C3.34 4.66 2.68 5.32 2 6 C1.34 5.67 0.68 5.34 0 5 C-0.66 5.66 -1.32 6.32 -2 7 C-2.66 6.67 -3.32 6.34 -4 6 C-2.25 1.125 -2.25 1.125 0 0 Z " fill="#030303" transform="translate(322,272)"/>
<path d="M0 0 C0.66 0.33 1.32 0.66 2 1 C1.8125 3.375 1.8125 3.375 1 6 C-1.5625 7.3125 -1.5625 7.3125 -4 8 C-2.66666667 5.33333333 -1.33333333 2.66666667 0 0 Z " fill="#333333" transform="translate(483,246)"/>
<path d="M0 0 C3 1 3 1 4.1875 3.0625 C4.455625 3.701875 4.72375 4.34125 5 5 C2.03 4.505 2.03 4.505 -1 4 C-0.67 2.68 -0.34 1.36 0 0 Z " fill="#2D2D2D" transform="translate(193,193)"/>
</svg>
